<svg version="1.1" id="Layer_2" xmlns="http://www.w3.org/2000/svg" x="0" y="0" viewBox="0 0 20.5 44.9" xml:space="preserve"><style>.st1{fill:none;stroke:#fff;stroke-width:.75;stroke-miterlimit:10}</style><path d="M6.9.3s-.2 8.9-.4 10C6.3 11.4.8 17 .4 18.2c-.4 1.2 0 3.5 0 3.5S1.3 25 1.5 26s1 1.8 1 1.8l.6 13.3s-.2 3.2 1.6 3.5c1.8.4 1.7-2 1.7-2s.3-10.7.2-11.4c0-.7.7-1 .7-1s-.1 1.8 0 2.5c.1.6.4 2.5 2.4 2.5s2.2-2.3 2.2-2.3.4.9 2.1.9 2.1-3 2.1-3 .1.4 1.4 0c1.8-.5 1.5-1.9 1.5-1.9s-.1-1.2-.2-2.6.9-1.9 1-2.7.6-3.2.3-5.8c-.3-2.6-1.5-5-1.6-6.7s.8-9 .8-9L6.9.3z" fill="#00a218" stroke="#fff" stroke-miterlimit="10"/><path class="st1" d="M11.9 32.8s.3-3.4.3-4.6c0-1.1-.8-3-.8-3l-.6-2s-.6-.4-1.7-.4-1.9 1.7-1.9 1.7l.3 1.2s.9 2.1.9 2.9-.4 1.4-1 1.5-1-1.1-1.4-1.6c-1-1-2.8-.4-3.4-.8"/><path class="st1" d="M3.9 20.2l1.3 1.7.3 2.2 1.6.5M10.7 23.3s.4-1.2 1.4-1.2 1.7.4 1.7.4c1 2.3 1.8 5.2 2.2 8.1M18.9 26.1c-.1-.4-1.9-3.7-4.1-4-.9 0-.9.4-.9.4"/></svg>